<svg data-name="Layer 1" xmlns="http://www.w3.org/2000/svg" viewBox="0 0 210 50"><path d="M58.68 44.06a4.7 4.7 0 0 1-1.75-.32 4.2 4.2 0 0 1-1.4-.89 4.2 4.2 0 0 1-.92-1.35 4.68 4.68 0 0 1 0-3.4 4.2 4.2 0 0 1 .93-1.35 4.3 4.3 0 0 1 1.39-.89 4.8 4.8 0 0 1 1.76-.32 4.9 4.9 0 0 1 1.69.29 3.55 3.55 0 0 1 1.34.86l-.39.41a3.3 3.3 0 0 0-1.2-.77 4.4 4.4 0 0 0-1.43-.23 4.2 4.2 0 0 0-1.51.28 3.5 3.5 0 0 0-1.21.78 3.72 3.72 0 0 0 0 5.28 3.5 3.5 0 0 0 1.21.78 4.2 4.2 0 0 0 1.51.28 4.3 4.3 0 0 0 1.41-.23 3.3 3.3 0 0 0 1.22-.76l.35.47a3.7 3.7 0 0 1-1.35.81 5 5 0 0 1-1.65.27m2.41-1.14v-3.08h.59V43ZM65.38 44v-8.9H66V44Zm6.77.05a3.17 3.17 0 0 1-1.6-.41 3 3 0 0 1-1.11-1.13 3.2 3.2 0 0 1-.44-1.64 3.16 3.16 0 0 1 .42-1.65 3 3 0 0 1 1.11-1.12 3.35 3.35 0 0 1 3.21 0 2.87 2.87 0 0 1 1.12 1.12 3.26 3.26 0 0 1 .41 1.65 3.3 3.3 0 0 1-.41 1.64 2.9 2.9 0 0 1-1.12 1.13 3.16 3.16 0 0 1-1.59.41m0-.54a2.54 2.54 0 0 0 1.3-.33 2.24 2.24 0 0 0 .9-.93 3.07 3.07 0 0 0 0-2.77 2.3 2.3 0 0 0-.9-.92 2.71 2.71 0 0 0-2.59 0 2.46 2.46 0 0 0-.89.92 3.07 3.07 0 0 0 0 2.77 2.4 2.4 0 0 0 .89.93 2.55 2.55 0 0 0 1.29.33m7.24.49L77 37.74h.57l2.21 5.92h-.25l2.27-5.92h.51l2.26 5.92h-.27l2.25-5.92h.55L84.74 44h-.56L82 38.31h.19L79.94 44Zm15.83 0-2.38-6.26h.58l2.21 5.92h-.25l2.26-5.92h.52l2.26 5.92h-.27l2.25-5.92h.6L100.57 44H100l-2.2-5.69h.2L95.77 44Zm10.62-7.79a.5.5 0 0 1-.35-.14.5.5 0 0 1-.14-.34.52.52 0 0 1 .14-.35.5.5 0 0 1 .35-.14.48.48 0 0 1 .35.14.46.46 0 0 1 .14.34.5.5 0 0 1-.14.35.48.48 0 0 1-.35.14m-.3 7.79v-6.26h.6V44Zm3.3-5.75v-.51h3.74v.51Zm2.85 5.8a1.64 1.64 0 0 1-1.26-.46 1.73 1.73 0 0 1-.44-1.25v-6h.6v5.91a1.33 1.33 0 0 0 .3.93 1.15 1.15 0 0 0 .87.32 1.36 1.36 0 0 0 1-.35l.25.42a1.35 1.35 0 0 1-.58.34 2.4 2.4 0 0 1-.74.14m7.22-6.36a2.9 2.9 0 0 1 1.33.29 2.07 2.07 0 0 1 .89.89 3.1 3.1 0 0 1 .32 1.47V44h-.6v-3.61a2.25 2.25 0 0 0-.53-1.61 2 2 0 0 0-1.5-.55 2.56 2.56 0 0 0-1.27.3 2 2 0 0 0-.82.84 2.7 2.7 0 0 0-.28 1.29V44h-.6v-8.9h.6v4.38l-.11-.2a2.42 2.42 0 0 1 1-1.17 3 3 0 0 1 1.57-.42m14.24 6.37a4.7 4.7 0 0 1-1.73-.32 4 4 0 0 1-2.3-2.24 4.54 4.54 0 0 1 0-3.4 4 4 0 0 1 .92-1.35 4.2 4.2 0 0 1 1.38-.89 4.7 4.7 0 0 1 1.73-.32 4.8 4.8 0 0 1 1.66.29 3.4 3.4 0 0 1 1.33.87l-.39.4a3.2 3.2 0 0 0-1.19-.76 4 4 0 0 0-1.39-.24 4.1 4.1 0 0 0-1.49.28 3.5 3.5 0 0 0-1.2.78 3.75 3.75 0 0 0 0 5.28 3.5 3.5 0 0 0 1.2.78 4.1 4.1 0 0 0 1.49.28 4 4 0 0 0 1.39-.24 3.1 3.1 0 0 0 1.19-.77l.39.39a3.5 3.5 0 0 1-1.33.89 4.8 4.8 0 0 1-1.66.29m8.21-.01a3.1 3.1 0 0 1-1.6-.41 3 3 0 0 1-1.12-1.13 3.2 3.2 0 0 1-.41-1.64 3.16 3.16 0 0 1 .41-1.65 3.06 3.06 0 0 1 2.72-1.53 3.1 3.1 0 0 1 1.61.41 2.9 2.9 0 0 1 1.11 1.12 3.26 3.26 0 0 1 .41 1.65 3.3 3.3 0 0 1-.41 1.64 2.94 2.94 0 0 1-1.08 1.13 3.2 3.2 0 0 1-1.64.41m0-.54a2.53 2.53 0 0 0 1.29-.33 2.24 2.24 0 0 0 .9-.93 3.07 3.07 0 0 0 0-2.77 2.3 2.3 0 0 0-.9-.92 2.69 2.69 0 0 0-2.58 0 2.4 2.4 0 0 0-.9.92 3.07 3.07 0 0 0 0 2.77 2.37 2.37 0 0 0 .9.93 2.53 2.53 0 0 0 1.29.33m9.25-5.82A3 3 0 0 1 152 38a2.1 2.1 0 0 1 .89.89 3.1 3.1 0 0 1 .31 1.47V44h-.59v-3.61a2.2 2.2 0 0 0-.54-1.61 2 2 0 0 0-1.49-.55 2.6 2.6 0 0 0-1.28.3 2.07 2.07 0 0 0-.82.84 2.7 2.7 0 0 0-.28 1.29V44h-.6v-6.26h.58v1.74l-.09-.2a2.48 2.48 0 0 1 1-1.17 3 3 0 0 1 1.52-.42m5.18.56v-.51h3.75v.51ZM157 44v-7.22a1.77 1.77 0 0 1 .45-1.26 1.7 1.7 0 0 1 1.29-.47 2.2 2.2 0 0 1 .68.1 1.34 1.34 0 0 1 .55.31l-.24.45a1 1 0 0 0-.43-.26 1.6 1.6 0 0 0-.54-.09 1.17 1.17 0 0 0-.88.32 1.33 1.33 0 0 0-.3.94V44Zm4.11-7.79a.52.52 0 0 1-.35-.14.5.5 0 0 1-.14-.34.48.48 0 0 1 .49-.49.5.5 0 0 1 .36.14.45.45 0 0 1 .13.34.5.5 0 0 1-.13.35.51.51 0 0 1-.41.14Zm-.3 7.79v-6.26h.6V44Zm6.7.05a3.2 3.2 0 0 1-1.58-.4 2.94 2.94 0 0 1-1.11-1.13 3.55 3.55 0 0 1 0-3.31 2.9 2.9 0 0 1 1.11-1.12 3.1 3.1 0 0 1 1.58-.4 3 3 0 0 1 1.49.38 2.85 2.85 0 0 1 1.06 1.09 3.9 3.9 0 0 1 0 3.4 2.6 2.6 0 0 1-1.05 1.1 2.9 2.9 0 0 1-1.5.39m0-.54a2.53 2.53 0 0 0 1.29-.33 2.37 2.37 0 0 0 .9-.93 3.07 3.07 0 0 0 0-2.77 2.4 2.4 0 0 0-.9-.92 2.69 2.69 0 0 0-2.58 0 2.4 2.4 0 0 0-.9.92 3.07 3.07 0 0 0 0 2.77 2.37 2.37 0 0 0 .9.93 2.53 2.53 0 0 0 1.32.33Zm2.53.49v-2l.11-1.09-.12-1.1V35.1h.6V44Zm6.9.05a3.43 3.43 0 0 1-1.68-.41 3 3 0 0 1-1.14-1.13 3.3 3.3 0 0 1-.41-1.64 3.35 3.35 0 0 1 .39-1.65 2.9 2.9 0 0 1 2.61-1.53 3 3 0 0 1 1.53.39 2.93 2.93 0 0 1 1.07 1.11 3.4 3.4 0 0 1 .39 1.65.2.2 0 0 1 0 .08V41h-5.54v-.47h5.21l-.24.23a2.6 2.6 0 0 0-.3-1.31 2.43 2.43 0 0 0-.86-.91 2.51 2.51 0 0 0-2.49 0 2.3 2.3 0 0 0-.86.91 2.74 2.74 0 0 0-.31 1.32v.11a2.64 2.64 0 0 0 .34 1.36 2.4 2.4 0 0 0 .94.93 3 3 0 0 0 2.49.11 2.1 2.1 0 0 0 .88-.66l.35.4a2.6 2.6 0 0 1-1 .76 3.5 3.5 0 0 1-1.37.27m8.88-6.36a3 3 0 0 1 1.34.29 2 2 0 0 1 .88.89 3 3 0 0 1 .32 1.47V44h-.6v-3.61a2.25 2.25 0 0 0-.53-1.61 2 2 0 0 0-1.5-.55 2.6 2.6 0 0 0-1.27.3 2 2 0 0 0-.82.84 2.7 2.7 0 0 0-.28 1.29V44h-.6v-6.26h.57v1.74l-.08-.2a2.42 2.42 0 0 1 .95-1.17 3 3 0 0 1 1.62-.42m8.7 6.36a3.26 3.26 0 0 1-1.63-.41 3.06 3.06 0 0 1-1.13-1.13 3.53 3.53 0 0 1 0-3.3 3 3 0 0 1 1.13-1.12 3.26 3.26 0 0 1 1.63-.4 3.1 3.1 0 0 1 1.37.29 2.4 2.4 0 0 1 1 .86l-.44.32a2 2 0 0 0-.84-.7 2.5 2.5 0 0 0-1.09-.23 2.64 2.64 0 0 0-1.32.33 2.44 2.44 0 0 0-.91.92 2.83 2.83 0 0 0-.33 1.39 2.76 2.76 0 0 0 .33 1.38 2.4 2.4 0 0 0 .91.93 2.76 2.76 0 0 0 2.41.1 2 2 0 0 0 .84-.71l.44.33a2.4 2.4 0 0 1-1 .86 3.2 3.2 0 0 1-1.37.29m7.81 0a3.36 3.36 0 0 1-1.67-.41 2.9 2.9 0 0 1-1.14-1.13 3.2 3.2 0 0 1-.42-1.64 3.35 3.35 0 0 1 .39-1.65 2.93 2.93 0 0 1 2.61-1.53 3 3 0 0 1 1.53.39 2.93 2.93 0 0 1 1.07 1.11 3.4 3.4 0 0 1 .39 1.65.2.2 0 0 1 0 .08V41h-5.53v-.47h5.2l-.24.23a2.6 2.6 0 0 0-.3-1.31 2.39 2.39 0 0 0-4.21 0 2.74 2.74 0 0 0-.31 1.32v.11a2.64 2.64 0 0 0 .34 1.36 2.4 2.4 0 0 0 .94.93 2.8 2.8 0 0 0 1.37.33 2.8 2.8 0 0 0 1.12-.22 2.15 2.15 0 0 0 .89-.66l.34.4a2.6 2.6 0 0 1-1 .76 3.5 3.5 0 0 1-1.37.27M43.61 5.15H36.1a1.17 1.17 0 0 0-1 .42c-.6.71-1.18 1.44-1.8 2.14-4.18 5-8.39 10-12.58 15-1.08 1.24-2.07 2.57-3.21 3.75a9 9 0 0 1 0-.89V6.23a1.09 1.09 0 0 0-1.16-1.08H5A1.18 1.18 0 0 0 3.92 6v40l.08-.09c1.15-1.38 2.31-2.75 3.46-4.12.44-.54 1-1.07 1-1.82V10.94a1.17 1.17 0 0 1 .42-1A1.8 1.8 0 0 1 10 9.71h2.06a1.12 1.12 0 0 1 .9 1.2v28.05c.5-.52.94-1.09 1.41-1.64l5.67-6.76a1.11 1.11 0 0 1 1.42-.35 6 6 0 0 1 1 1.06c4 4.73 7.94 9.45 11.89 14.18a1.17 1.17 0 0 0 1 .5h5.37c-.48-.7-1.08-1.31-1.6-2-2.05-2.4-4.12-4.85-6.12-7.31-2.68-3.17-5.32-6.36-8-9.53-.27-.33-.64-.67-.63-1.14a1.4 1.4 0 0 1 .41-.91c2.61-3.07 5.18-6.18 7.79-9.25 1.52-1.83 3-3.65 4.58-5.48a1.27 1.27 0 0 1 .91-.6 5.4 5.4 0 0 1 1.45 0 1.14 1.14 0 0 1 .67 1.27v29c0 .75.57 1.28 1 1.82 1.15 1.37 2.31 2.74 3.45 4.12l.07.09V6.41a1.12 1.12 0 0 0-1.09-1.26m19.62 18.66-6.79-7.53v7.53h-2.15V7.32h2.15V15l6.81-7.64H66l-7.5 8.21 7.5 8.24Zm7.38-1.75h5.77v1.75h-7.92V7.32h2.15Zm17.81-1.92h-7.19l-1.33 3.67h-2.27l6-16.4h2.49L92 23.81h-2.26Zm-.62-1.75-3-8.33-3 8.33Zm9.12 5a4.8 4.8 0 0 1-2-1.61 4.13 4.13 0 0 1-.76-2.37h2.3a3 3 0 0 0 1 1.95 3.44 3.44 0 0 0 2.45.79 3.6 3.6 0 0 0 2.43-.77 2.49 2.49 0 0 0 .88-2 2.23 2.23 0 0 0-.52-1.54 3.4 3.4 0 0 0-1.3-.9 20 20 0 0 0-2.1-.66 20 20 0 0 1-2.62-.85A4.3 4.3 0 0 1 95 14.09a4 4 0 0 1-.69-2.45 4.23 4.23 0 0 1 .68-2.39 4.43 4.43 0 0 1 1.93-1.6 6.8 6.8 0 0 1 2.85-.57 6 6 0 0 1 3.8 1.16 4.25 4.25 0 0 1 1.66 3.07h-2.43a2.54 2.54 0 0 0-1-1.67A3.5 3.5 0 0 0 99.49 9a3.32 3.32 0 0 0-2.2.7 2.39 2.39 0 0 0-.85 1.95 2.12 2.12 0 0 0 .5 1.47 3.3 3.3 0 0 0 1.26.86c.49.2 1.19.42 2.09.68a19 19 0 0 1 2.63.88 4.3 4.3 0 0 1 1.7 1.35 3.94 3.94 0 0 1 .71 2.47 4.3 4.3 0 0 1-.64 2.27 4.75 4.75 0 0 1-1.89 1.73 6.3 6.3 0 0 1-3 .66 7 7 0 0 1-2.88-.63m13.88 0a4.8 4.8 0 0 1-2-1.61 4.13 4.13 0 0 1-.76-2.37h2.3a3 3 0 0 0 1 1.95 3.4 3.4 0 0 0 2.44.79 3.6 3.6 0 0 0 2.43-.77 2.49 2.49 0 0 0 .89-2 2.28 2.28 0 0 0-.52-1.54 3.4 3.4 0 0 0-1.31-.9 20 20 0 0 0-2.1-.66 20 20 0 0 1-2.61-.85 4.2 4.2 0 0 1-1.68-1.34 3.9 3.9 0 0 1-.7-2.45 4.24 4.24 0 0 1 .69-2.39 4.35 4.35 0 0 1 1.92-1.6 6.8 6.8 0 0 1 2.85-.57 5.94 5.94 0 0 1 3.8 1.16 4.3 4.3 0 0 1 1.67 3.07h-2.37a2.57 2.57 0 0 0-1-1.67 3.56 3.56 0 0 0-2.37-.64 3.34 3.34 0 0 0-2.2.7 2.39 2.39 0 0 0-.85 1.95 2.12 2.12 0 0 0 .51 1.47 3.26 3.26 0 0 0 1.25.86c.5.2 1.2.42 2.09.68a18.6 18.6 0 0 1 2.63.88 4.3 4.3 0 0 1 1.7 1.35 3.88 3.88 0 0 1 .71 2.47 4.3 4.3 0 0 1-.64 2.27 4.6 4.6 0 0 1-1.89 1.73 6.25 6.25 0 0 1-3 .66 7 7 0 0 1-2.88-.63m23.12-16.07-5.37 10.27v6.22h-2.15v-6.22L121 7.32h2.39l4.07 8.35 4.06-8.35Zm25.31.12v16.37h-2.15V11.6l-5.44 12.21h-1.52l-5.46-12.23v12.23h-2.15V7.44h2.32l6 13.53 6.06-13.53Zm5.77-.12v16.49h-2.16V7.32Zm6 16.07a4.8 4.8 0 0 1-2-1.61 4.1 4.1 0 0 1-.75-2.37h2.29a3 3 0 0 0 1 1.95 3.44 3.44 0 0 0 2.45.79 3.58 3.58 0 0 0 2.42-.77 2.49 2.49 0 0 0 .89-2 2.23 2.23 0 0 0-.52-1.54 3.45 3.45 0 0 0-1.3-.9 20 20 0 0 0-2.11-.66 20 20 0 0 1-2.61-.85 4.3 4.3 0 0 1-1.76-1.31 4 4 0 0 1-.7-2.45 4.24 4.24 0 0 1 .7-2.39 4.43 4.43 0 0 1 1.93-1.6 6.7 6.7 0 0 1 2.85-.57 5.9 5.9 0 0 1 3.79 1.16 4.26 4.26 0 0 1 1.67 3.07h-2.37a2.53 2.53 0 0 0-1-1.67 3.52 3.52 0 0 0-2.31-.67 3.34 3.34 0 0 0-2.2.7 2.42 2.42 0 0 0-.85 1.95 2.12 2.12 0 0 0 .51 1.47 3.3 3.3 0 0 0 1.25.86c.5.2 1.2.42 2.1.68a18.4 18.4 0 0 1 2.62.88 4.36 4.36 0 0 1 1.71 1.35 3.94 3.94 0 0 1 .71 2.47 4.4 4.4 0 0 1-.64 2.27 4.7 4.7 0 0 1-1.9 1.73 6.2 6.2 0 0 1-3 .66 7 7 0 0 1-2.87-.63m13.88 0a4.8 4.8 0 0 1-2-1.61 4.13 4.13 0 0 1-.76-2.37h2.3a3 3 0 0 0 .95 1.95 3.44 3.44 0 0 0 2.45.79 3.6 3.6 0 0 0 2.43-.77 2.49 2.49 0 0 0 .88-2 2.23 2.23 0 0 0-.52-1.54 3.4 3.4 0 0 0-1.3-.9 20 20 0 0 0-2.1-.66 20 20 0 0 1-2.62-.85 4.3 4.3 0 0 1-1.68-1.34 4 4 0 0 1-.69-2.45 4.23 4.23 0 0 1 .68-2.39 4.43 4.43 0 0 1 1.93-1.6 6.8 6.8 0 0 1 2.85-.57 6 6 0 0 1 3.8 1.16 4.25 4.25 0 0 1 1.66 3.07h-2.36a2.54 2.54 0 0 0-1-1.67 3.5 3.5 0 0 0-2.33-.64 3.32 3.32 0 0 0-2.2.7 2.39 2.39 0 0 0-.85 1.95 2.12 2.12 0 0 0 .5 1.47 3.3 3.3 0 0 0 1.26.86c.49.2 1.19.42 2.09.68a19 19 0 0 1 2.63.88 4.3 4.3 0 0 1 1.7 1.35 3.94 3.94 0 0 1 .71 2.47 4.3 4.3 0 0 1-.64 2.27 4.75 4.75 0 0 1-1.89 1.73 6.3 6.3 0 0 1-3 .66 7 7 0 0 1-2.88-.63M208 7.32l-5.37 10.27v6.22h-2.15v-6.22l-5.39-10.27h2.38l4.07 8.35 4.07-8.35Z"/></svg>